<svg xmlns="http://www.w3.org/2000/svg" width="172" height="100" viewBox="0 0 172 100" fill="none">
  <path d="M86.8389 33.0255C88.2372 33.0255 89.4539 32.5199 90.4573 31.5199C91.4606 30.5215 91.9702 29.2806 91.9702 27.8337C91.9702 26.3868 91.4622 25.2331 90.4589 24.2331H90.4573C89.4524 23.2331 88.2356 22.7275 86.8389 22.7275C85.4422 22.7275 84.1379 23.2331 83.1345 24.2331C82.1312 25.2315 81.6216 26.4439 81.6216 27.8353C81.6216 29.2267 82.1312 30.5247 83.133 31.5199C84.1347 32.5199 85.3817 33.0255 86.8389 33.0255Z" fill="#3586FF"/>
  <path d="M60.6362 37.691C60.1839 37.4327 60.2731 36.7576 60.7763 36.6261C62.2367 36.241 64.1399 35.8606 66.3599 35.7259C75.5826 35.1633 80.6009 39.4185 85.4934 40.0524C90.768 40.737 98.7214 37.5817 110.28 20.1475C109.312 24.7212 107.912 29.5167 105.933 34.428C96.839 56.9747 79.7807 71.2885 66.5988 79.6467C65.3932 80.4105 64.0507 78.8876 64.9728 77.8004C72.4707 68.9541 74.9759 58.138 71.5789 49.5738C69.104 43.3345 64.0236 39.6213 60.6362 37.6926V37.691Z" fill="#3586FF"/>
  <mask id="mask0_11625_32046" style="mask-type:luminance" maskUnits="userSpaceOnUse" x="60" y="20" width="51" height="60">
    <path d="M60.6362 37.691C60.1839 37.4327 60.2731 36.7576 60.7763 36.6261C62.2367 36.241 64.1399 35.8606 66.3599 35.7259C75.5826 35.1633 80.6009 39.4185 85.4934 40.0524C90.768 40.737 98.7214 37.5817 110.28 20.1475C109.312 24.7212 107.912 29.5167 105.933 34.428C96.839 56.9747 79.7807 71.2885 66.5988 79.6467C65.3932 80.4105 64.0507 78.8876 64.9728 77.8004C72.4707 68.9541 74.9759 58.138 71.5789 49.5738C69.104 43.3345 64.0236 39.6213 60.6362 37.6926V37.691Z" fill="white"/>
  </mask>
  <g mask="url(#mask0_11625_32046)">
    <path d="M54.5685 38.0698C55.1625 39.5421 62.1238 35.5009 71.571 38.737C80.7603 41.886 80.9259 48.0223 89.021 50.0904C99.0066 52.6419 108.303 45.7418 109.604 44.7481C110.744 43.8765 119.014 37.3392 120.118 26.0476C120.462 22.5199 121.034 16.6815 118.105 13.5801C107.196 2.03019 52.909 33.9525 54.5685 38.0682V38.0698Z" fill="#73B3FF"/>
    <path d="M18.3258 79.7007C18.9199 81.1729 25.8811 77.1317 35.3283 80.3679C44.5176 83.5168 44.6832 89.6531 52.7784 91.7213C62.7639 94.2728 72.0599 87.3726 73.361 86.379C74.5013 85.5073 82.7717 78.9701 83.8753 67.6785C84.2193 64.1507 84.7911 58.3124 81.8623 55.211C70.953 43.6611 16.6663 75.5834 18.3258 79.6991V79.7007Z" fill="#005DCC"/>
  </g>
  <path d="M57.7715 43.2839C56.1471 40.5089 53.9079 38.2807 51.1177 36.6627C48.3211 35.043 45.2251 34.2221 41.9173 34.2221C39.522 34.2221 37.2573 34.6579 35.187 35.52C34.104 35.9701 33.0927 36.5422 32.161 37.23V27.5803C32.161 23.5913 28.8994 20.3457 24.8909 20.3457H23.5244V79.8544H24.8909C28.8994 79.8544 32.161 76.6088 32.161 72.6199V52.4424C32.161 50.6848 32.5895 49.0985 33.4717 47.5929C34.3429 46.1048 35.5453 44.9099 37.0423 44.0383C38.5569 43.1603 40.1511 42.734 41.9157 42.734C43.6803 42.734 45.2537 43.1587 46.7365 44.0335C48.2096 44.9051 49.4009 46.1016 50.2752 47.5929C51.1447 49.0795 51.5859 50.7102 51.5859 52.4424V79.856H52.9523C56.9609 79.856 60.2225 76.6104 60.2225 72.6215V52.444C60.2225 49.1524 59.3976 46.0715 57.7699 43.2886L57.7715 43.2839Z" fill="#003968"/>
  <path d="M132.165 37.8293C129.08 35.4346 125.516 34.2207 121.571 34.2207C119.045 34.2207 116.607 34.75 114.326 35.7928L114.136 35.8863C111.292 37.2397 108.959 39.311 107.201 42.0416C105.439 44.7785 104.546 47.8467 104.546 51.1621V79.8514H105.912C109.881 79.8514 113.097 76.6502 113.097 72.7025V51.1621C113.097 48.8483 113.917 46.9069 115.605 45.227C117.293 43.5472 119.244 42.731 121.569 42.731C122.684 42.731 123.826 42.9798 124.961 43.4695C125.358 43.6407 125.812 43.6153 126.186 43.4014L133.77 39.0733L132.165 37.8277V37.8293Z" fill="#003968"/>
  <path d="M143.346 33.0255C144.745 33.0255 145.961 32.5199 146.965 31.5199C147.968 30.5215 148.478 29.2806 148.478 27.8337C148.478 26.3868 147.97 25.2331 146.966 24.2331H146.965C145.96 23.2331 144.743 22.7275 143.346 22.7275C141.95 22.7275 140.645 23.2331 139.642 24.2331C138.639 25.2315 138.129 26.4439 138.129 27.8353C138.129 29.2267 138.639 30.5247 139.64 31.5199C140.642 32.5199 141.889 33.0255 143.346 33.0255Z" fill="#003968"/>
  <path d="M140.351 34.5615H138.984V79.8515H140.351C144.359 79.8515 147.621 76.6059 147.621 72.617V41.7961C147.621 37.8072 144.359 34.5615 140.351 34.5615Z" fill="#003968"/>
</svg>